# xmcd
#
# Track frame offsets: 
#        150
#        14071
#        35971
#        50225
#        60929
#        69270
#        81032
#        98826
#        114864
#        138173
#        149319
#        162268
#        175154
#        189729
#        199745
#        215129
#        225123
#        235887
#        242120
#        252594
#        266828
#        275829
#        283355
#
# Disc length: 3950 seconds
#
# Revision: 0
# Processed by: cddbd v1.5.2PL0 Copyright (c) Steve Scherf et al.
# Submitted via: ExactAudioCopy v0.99pb5
#
DISCID=610f6c17
DTITLE=Simon and Garfunkel - The Very Best
DYEAR=2006
DGENRE=Pop
TTITLE0=The Sound Of Silence
TTITLE1=Bridge Over Trouble Water
TTITLE2=El Condor Pasa
TTITLE3=A Most Preculiar Man
TTITLE4=Song For The Asking
TTITLE5=Old Friends
TTITLE6=Mrs Robinson
TTITLE7=America
TTITLE8=The Boxer
TTITLE9=Homeward Bound
TTITLE10=Cecilia
TTITLE11=I am a Rock
TTITLE12=A Church Is Burning
TTITLE13=Wednesday Morning 3 Am
TTITLE14=Kathy's Song
TTITLE15=For Emily, Whenever I may Find Her
TTITLE16=At The Zoo
TTITLE17=Bookends Theme
TTITLE18=A Hazy Shade Of Winter
TTITLE19=Scarborough Fair
TTITLE20=Seven o'Clock news
TTITLE21=The 59th Street bridge Song
TTITLE22=Benedictus
EXTD=
EXTT0=
EXTT1=
EXTT2=
EXTT3=
EXTT4=
EXTT5=
EXTT6=
EXTT7=
EXTT8=
EXTT9=
EXTT10=
EXTT11=
EXTT12=
EXTT13=
EXTT14=
EXTT15=
EXTT16=
EXTT17=
EXTT18=
EXTT19=
EXTT20=
EXTT21=
EXTT22=
PLAYORDER=
